<svg width="89" height="89" viewBox="0 0 89 89" fill="none" xmlns="http://www.w3.org/2000/svg">
<g clip-path="url(#clip0_4_270)">
<rect width="89" height="89" fill="#E94E0F"/>
<path d="M0 6.26043L64.2913 6.26043C69.6573 6.17263 80.4421 8.26229 80.6533 17.3234C80.8644 26.3844 69.8332 28.6497 64.2913 28.6497H18.8999C15.3812 28.7375 8.34375 30.5989 8.34375 37.342C8.34375 44.0851 15.3812 45.4197 18.8999 45.2441H64.2913C69.7453 44.8929 80.6533 46.6664 80.6533 56.5704C80.6533 66.4744 69.7453 67.2821 64.2913 66.8431H18.8999C15.3812 66.7553 8.34375 68.2128 8.34375 74.7452C8.34375 81.2776 15.3812 82.5595 18.8999 82.3839H89.3477" stroke="#FFC200" stroke-width="3"/>
</g>
<defs>
<clipPath id="clip0_4_270">
<rect width="89" height="89" fill="white"/>
</clipPath>
</defs>
</svg>
