<svg width="89" height="89" viewBox="0 0 89 89" fill="none" xmlns="http://www.w3.org/2000/svg">
<g clip-path="url(#clip0_4_262)">
<rect width="89" height="89" fill="#EA2524"/>
<path d="M22.5977 -0.695312L18.7734 3.12891L22.5977 6.95312L18.7734 10.7773L22.5977 14.6016L18.7734 18.4258L22.5977 22.25L18.7734 26.0742L22.5977 29.8984L18.7734 33.7227L22.5977 37.5469L18.7734 41.3711L22.5977 45.1953L18.7734 49.0195L22.5977 52.8438L18.7734 56.668L22.5977 60.4922L18.7734 64.3164L22.5977 68.1406L18.7734 71.9648L22.5977 75.7891L18.7734 79.6133L22.5977 83.4375L18.7734 87.2617L22.5977 91.0859" stroke="white" stroke-width="3"/>
<path d="M70.5742 -0.695312L66.75 3.12891L70.5742 6.95312L66.75 10.7773L70.5742 14.6016L66.75 18.4258L70.5742 22.25L66.75 26.0742L70.5742 29.8984L66.75 33.7227L70.5742 37.5469L66.75 41.3711L70.5742 45.1953L66.75 49.0195L70.5742 52.8438L66.75 56.668L70.5742 60.4922L66.75 64.3164L70.5742 68.1406L66.75 71.9648L70.5742 75.7891L66.75 79.6133L70.5742 83.4375L66.75 87.2617L70.5742 91.0859" stroke="white" stroke-width="3"/>
<path d="M46.5859 -0.695312L42.7617 3.12891L46.5859 6.95312L42.7617 10.7773L46.5859 14.6016L42.7617 18.4258L46.5859 22.25L42.7617 26.0742L46.5859 29.8984L42.7617 33.7227L46.5859 37.5469L42.7617 41.3711L46.5859 45.1953L42.7617 49.0195L46.5859 52.8438L42.7617 56.668L46.5859 60.4922L42.7617 64.3164L46.5859 68.1406L42.7617 71.9648L46.5859 75.7891L42.7617 79.6133L46.5859 83.4375L42.7617 87.2617L46.5859 91.0859" stroke="white" stroke-width="3"/>
</g>
<defs>
<clipPath id="clip0_4_262">
<rect width="89" height="89" fill="white"/>
</clipPath>
</defs>
</svg>
