<svg width="89" height="89" viewBox="0 0 89 89" fill="none" xmlns="http://www.w3.org/2000/svg">
<rect width="89" height="89" fill="#FF9E93"/>
<circle cx="27.8125" cy="22.25" r="2.78125" fill="black"/>
<circle cx="38.9375" cy="22.25" r="2.78125" fill="black"/>
<circle cx="50.0625" cy="22.25" r="2.78125" fill="black"/>
<circle cx="61.1875" cy="22.25" r="2.78125" fill="black"/>
<circle cx="27.8125" cy="33.375" r="2.78125" fill="black"/>
<circle cx="38.9375" cy="33.375" r="2.78125" fill="black"/>
<circle cx="50.0625" cy="33.375" r="2.78125" fill="black"/>
<circle cx="61.1875" cy="33.375" r="2.78125" fill="black"/>
<circle cx="27.8125" cy="44.5" r="2.78125" fill="black"/>
<circle cx="38.9375" cy="44.5" r="2.78125" fill="black"/>
<circle cx="50.0625" cy="44.5" r="2.78125" fill="black"/>
<circle cx="61.1875" cy="44.5" r="2.78125" fill="black"/>
<circle cx="27.8125" cy="55.625" r="2.78125" fill="black"/>
<circle cx="38.9375" cy="55.625" r="2.78125" fill="black"/>
<circle cx="50.0625" cy="55.625" r="2.78125" fill="black"/>
<circle cx="61.1875" cy="55.625" r="2.78125" fill="black"/>
<circle cx="27.8125" cy="66.75" r="2.78125" fill="black"/>
<circle cx="38.9375" cy="66.75" r="2.78125" fill="black"/>
<circle cx="50.0625" cy="66.75" r="2.78125" fill="black"/>
<circle cx="61.1875" cy="66.75" r="2.78125" fill="black"/>
</svg>
