<svg width="40" height="40" viewBox="0 0 40 40" fill="none" xmlns="http://www.w3.org/2000/svg">
<path fill-rule="evenodd" clip-rule="evenodd" d="M31.6667 18.3333H11.8917L17.9467 11.0667C18.5367 10.36 18.4401 9.30833 17.7334 8.72C17.0251 8.13 15.9751 8.22666 15.3867 8.93333L7.05341 18.9333C6.98841 19.0117 6.95508 19.1033 6.90675 19.19C6.86675 19.26 6.81841 19.32 6.78841 19.3967C6.71341 19.5883 6.66841 19.79 6.66841 19.9933C6.66841 19.995 6.66675 19.9983 6.66675 20C6.66675 20.0017 6.66841 20.005 6.66841 20.0067C6.66841 20.21 6.71341 20.4117 6.78841 20.6033C6.81841 20.68 6.86675 20.74 6.90675 20.81C6.95508 20.8967 6.98841 20.9883 7.05341 21.0667L15.3867 31.0667C15.7167 31.4617 16.1901 31.6667 16.6667 31.6667C17.0434 31.6667 17.4217 31.54 17.7334 31.28C18.4401 30.6917 18.5367 29.64 17.9467 28.9333L11.8917 21.6667H31.6667C32.5867 21.6667 33.3334 20.92 33.3334 20C33.3334 19.08 32.5867 18.3333 31.6667 18.3333Z" fill="black"/>
</svg>
