<svg width="118" height="126" viewBox="0 0 118 126" fill="none" xmlns="http://www.w3.org/2000/svg">
<path d="M115.051 59.6998C115.051 45.239 48.7119 -9.17088 19.863 1.33769C-13.6461 13.5435 -1.76029 132.911 33.1842 125.685C48.2366 122.572 78.8943 99.3433 78.8943 99.3433C78.8943 99.3433 115.051 74.1654 115.051 59.6998Z" fill="#F8B123"/>
<path d="M117.49 59.6755C117.49 39.0706 56.2768 0.489036 29.2513 1.65773C-5.18883 3.16103 0.392782 122.572 33.6788 122.572C48.2172 122.572 117.49 80.2756 117.49 59.6755Z" fill="#D4102E"/>
<path d="M112.748 59.661C112.748 42.3633 60.3794 12.37 41.0547 13.0344C31.6615 13.3593 24.5281 28.9839 21.41 47.4794C20.0667 55.4372 19.3053 63.846 19.6981 71.9153C20.8474 95.8178 30.357 115.933 52.4119 106.865C62.1882 102.849 112.748 76.9635 112.748 59.661Z" fill="#E73440"/>
<path d="M108.005 59.6755C108.005 42.7949 64.9524 19.9884 48.2172 21.5644C29.4696 23.3247 37.3401 99.9592 59.7684 95.6287C67.959 94.0478 108.005 76.5513 108.005 59.6755Z" fill="#D4102E"/>
<path d="M102.996 63.0943C109.625 50.1756 75.9216 34.8516 64.5935 32.3251C51.3111 29.367 50.7971 88.0249 68.6185 86.7786C72.8132 86.4828 95.5518 77.6036 102.996 63.0943Z" fill="#E73440"/>
<path d="M98.4711 59.4524C96.575 53.1628 82.3615 42.0287 74.3406 42.6688C64.1133 43.4787 64.4188 80.4114 74.651 79.5967C77.5849 79.3639 100.367 65.7372 98.4711 59.4524Z" fill="#D4102E"/>
<path d="M45.8459 47.4794C44.9439 47.4794 44.0031 48.1923 43.7607 49.0651L37.3595 71.9153H44.1341L45.0991 67.9389H52.3246L53.2896 71.9153H60.0642L53.1393 47.1739L45.8459 47.4794ZM46.5151 62.0663L48.6925 53.1823L50.8698 62.0663H46.5151Z" fill="white"/>
<path d="M21.4148 47.4794C20.5128 47.4794 19.572 48.1923 19.3296 49.0651L12.9284 71.9153H19.703L20.668 67.9389H27.8935L28.8586 71.9153H35.6331L28.7034 47.1739L21.4148 47.4794ZM22.0307 62.0663L24.208 53.1823L26.3854 62.0663H22.0307Z" fill="white"/>
<path d="M67.1199 59.6998C67.1199 64.8158 68.8172 66.2997 72.0323 66.2997C73.8654 66.2997 74.6558 66.0912 77.2503 65.5044L78.3559 71.3091C76.1785 71.862 73.589 72.1723 71.5135 72.1723C65.1511 72.1723 60.2096 68.996 60.2096 59.6949C60.2096 50.3987 65.1511 47.2175 71.5135 47.2175C73.5841 47.2175 76.1785 47.523 78.3559 48.0807L77.2503 53.8902C74.6558 53.2986 73.8654 53.0949 72.0323 53.0949C68.8124 53.0998 67.1199 54.5837 67.1199 59.6998Z" fill="white"/>
<path d="M92.5694 47.3969C92.4531 47.3969 86.2071 47.3339 85.6979 47.3969C85.1451 47.4648 82.3276 47.2757 81.7311 50.2484C81.091 53.4296 81.1734 59.6658 81.1734 59.6658C81.1734 59.6658 81.091 65.8973 81.7311 69.0785C82.1724 71.2946 83.8406 71.7456 84.9996 71.8862C85.8385 71.9881 92.2348 71.959 92.2348 71.959V71.9541C92.3464 71.959 92.4579 71.9638 92.5743 71.9638C100.004 71.9638 104.489 67.8807 104.489 59.6804C104.484 51.5189 99.9987 47.3969 92.5694 47.3969ZM89.9265 65.5578C86.6726 65.553 86.7017 53.7642 89.9556 53.769C92.5113 53.7739 98.1656 58.3226 98.1608 59.6852C98.1511 61.7802 90.8625 65.5627 89.9265 65.5578Z" fill="white"/>
</svg>
