<svg width="596" height="961" viewBox="0 0 596 961" fill="none" xmlns="http://www.w3.org/2000/svg">
<path d="M392.061 707.361C392.061 707.361 254.245 771.046 172.93 792.772C178.483 812.138 184.869 832.579 184.869 832.579L462.93 724.992L448.77 682.443L392.061 707.361Z" fill="#E7343F"/>
<path d="M184.73 836.053C184.201 836.053 183.679 835.935 183.203 835.706C182.776 835.498 182.396 835.21 182.085 834.849C181.775 834.491 181.541 834.075 181.398 833.624C181.398 833.416 174.943 812.8 169.46 793.747C169.29 792.869 169.464 791.963 169.945 791.214C170.162 790.804 170.462 790.45 170.827 790.169C171.192 789.884 171.614 789.687 172.063 789.582C252.163 768.169 389.25 705.005 390.708 704.345L447.417 679.566C447.85 679.357 448.326 679.25 448.805 679.25C449.284 679.25 449.759 679.357 450.193 679.566C450.637 679.753 451.033 680.034 451.363 680.388C451.692 680.739 451.942 681.159 452.102 681.613L466.262 724.162C466.546 725.009 466.491 725.932 466.109 726.741C465.727 727.55 465.047 728.178 464.214 728.501L186.153 836.088C185.682 836.182 185.196 836.171 184.73 836.053ZM177.095 795.205C180.947 808.497 185.042 821.859 186.951 828.001L458.453 723.052L446.549 687.27L393.345 710.523C390.569 711.807 257.751 772.958 177.095 795.205Z" fill="#1A1A1A"/>
<path d="M272.084 573.571C302.903 570.899 362.319 531.647 384.044 517.73C385.096 520.073 385.877 522.53 386.369 525.053C388.139 532.584 405.145 528.524 408.303 518.112C414.273 498.503 415.002 474.626 386.231 478.27C357.46 481.914 350.449 495.623 350.449 495.623C350.449 495.623 286.903 529.669 262.089 530.918C237.274 528.697 227.834 577.389 272.084 573.571Z" fill="#E7343F"/>
<path d="M267.12 577.254C250.948 577.254 243.868 569.861 240.987 565.176C238.624 561.064 237.441 556.382 237.57 551.641C237.698 546.9 239.133 542.288 241.716 538.314C243.765 534.809 246.751 531.946 250.337 530.047C253.924 528.145 257.969 527.281 262.019 527.555C284.438 526.132 340.384 496.876 347.846 492.85C350.206 489.379 359.681 477.892 385.675 474.595C396.677 473.206 404.763 475.462 409.726 481.327C417.709 490.837 415.106 506.975 411.496 518.879C409.98 522.825 407.3 526.219 403.809 528.603C400.318 530.991 396.184 532.258 391.957 532.241C389.923 532.379 387.903 531.81 386.244 530.627C384.586 529.443 383.392 527.718 382.864 525.751L382.552 524.432C382.552 523.842 382.309 523.356 382.17 522.905C357.876 538.488 302.347 574.304 272.222 576.907C270.591 577.184 268.89 577.254 267.12 577.254ZM260.179 534.427C257.587 534.476 255.053 535.197 252.825 536.523C250.598 537.852 248.755 539.737 247.477 541.993C245.607 544.88 244.555 548.226 244.433 551.665C244.31 555.105 245.123 558.516 246.783 561.532C250.809 568.091 259.624 571.146 271.528 570.104C300.056 567.64 355.169 532.102 378.7 516.901L381.927 514.818C382.354 514.544 382.836 514.367 383.343 514.301C383.846 514.235 384.357 514.28 384.842 514.437C385.321 514.589 385.766 514.846 386.137 515.186C386.508 515.53 386.8 515.946 386.994 516.415C387.966 518.501 388.698 520.687 389.181 522.939L389.493 524.224C389.736 525.195 391.228 525.404 392.096 525.438C394.799 525.404 397.437 524.581 399.682 523.071C401.924 521.562 403.681 519.427 404.729 516.935C409.136 502.463 408.997 491.462 404.312 485.909C400.842 481.952 394.976 480.495 386.439 481.57C360.167 485.041 353.33 497.049 353.295 497.188C352.948 497.785 352.441 498.274 351.837 498.611C349.234 500.034 287.354 533.108 262.053 534.496H261.533L260.179 534.427Z" fill="#1A1A1A"/>
<path d="M419.826 715.066C418.993 715.076 418.184 714.788 417.549 714.254C416.91 713.719 416.487 712.973 416.355 712.151C413.405 694.52 410.525 676.682 407.575 658.6C376.34 466.782 341.182 249.352 224.745 -9.0656C224.559 -9.48717 224.456 -9.94143 224.445 -10.4024C224.434 -10.8634 224.513 -11.3221 224.679 -11.7524C224.845 -12.1826 225.094 -12.5759 225.412 -12.9099C225.731 -13.2438 226.111 -13.5119 226.533 -13.6988C226.954 -13.8856 227.409 -13.9876 227.869 -13.9989C228.33 -14.0103 228.789 -13.9306 229.219 -13.7647C229.649 -13.5987 230.043 -13.3496 230.377 -13.0316C230.711 -12.7137 230.979 -12.333 231.166 -11.9114C347.95 247.339 383.315 465.221 414.516 657.49C417.431 675.536 420.346 693.41 423.261 711.005C423.411 711.911 423.196 712.841 422.665 713.591C422.13 714.337 421.321 714.844 420.416 714.997L419.826 715.066Z" fill="#1A1A1A"/>
<path d="M422.602 828.932C414.061 833.252 406.127 838.68 399.002 845.07C377.415 864.331 403.445 915.661 431.591 942.488C459.737 969.316 494.547 955.815 489.41 916.286C483.788 873.181 445.404 834.832 422.602 828.932Z" fill="white"/>
<path d="M462.166 960.153C451.338 960.153 439.573 954.913 429.196 944.987C408.685 925.448 387.133 890.638 387.549 864.678C387.404 860.541 388.143 856.418 389.719 852.587C391.291 848.759 393.665 845.309 396.677 842.467C404.003 835.855 412.173 830.24 420.971 825.773C421.7 825.437 422.519 825.364 423.296 825.565C447.035 831.708 486.807 870.682 492.707 915.8C495.206 934.888 488.924 950.262 475.91 956.856C471.648 959.008 466.942 960.136 462.166 960.153ZM422.949 832.645C415.161 836.765 407.89 841.797 401.293 847.638C398.964 849.869 397.142 852.57 395.945 855.565C394.747 858.556 394.203 861.77 394.352 864.991C393.97 888.07 414.134 921.353 433.847 940.163C446.688 952.449 461.611 956.544 472.786 950.887C483.198 945.681 487.918 932.979 485.836 916.91C480.769 876.756 445.23 839.413 422.949 832.645Z" fill="#1A1A1A"/>
<path d="M325.46 748.557L409.032 725.894L387.272 630.94L288.916 650.861L325.46 748.557Z" fill="white"/>
<path d="M325.461 752.024C324.752 752.027 324.059 751.812 323.476 751.41C322.893 751.007 322.447 750.435 322.199 749.768L285.654 652.072C285.478 651.603 285.407 651.1 285.445 650.6C285.482 650.097 285.629 649.611 285.873 649.174C286.117 648.733 286.453 648.355 286.859 648.057C287.265 647.762 287.73 647.557 288.222 647.456L386.578 627.535C387.466 627.362 388.386 627.539 389.142 628.031C389.902 628.524 390.437 629.291 390.638 630.173L412.433 725.266C412.624 726.141 412.472 727.053 412.006 727.817C411.541 728.58 410.799 729.132 409.935 729.361L326.364 752.059L325.461 752.024ZM293.567 653.46L327.613 744.389L404.902 723.565L384.634 635.031L293.567 653.46Z" fill="#1A1A1A"/>
<path d="M433.222 819.943C424.678 824.274 416.73 829.699 409.588 836.081C388.035 855.343 414.065 906.672 442.176 933.534C470.288 960.396 495.241 947.694 490.104 908.199C484.482 865.06 455.989 825.912 433.222 819.943Z" fill="#1A1A1A"/>
<path d="M470.253 951.449C461.021 951.449 450.367 946.139 439.781 936.04C419.27 916.466 397.718 881.691 398.135 855.731C397.979 851.591 398.714 847.468 400.29 843.636C401.866 839.805 404.243 836.355 407.262 833.52C414.596 826.919 422.762 821.303 431.556 816.826C432.295 816.483 433.128 816.406 433.916 816.618C457.204 822.657 487.363 861.735 493.367 907.755C496.074 928.37 491.146 943.467 479.901 949.159C476.906 950.661 473.602 951.446 470.253 951.449ZM433.708 823.663C425.916 827.793 418.649 832.839 412.052 838.691C409.733 840.884 407.915 843.55 406.717 846.506C405.52 849.467 404.972 852.646 405.111 855.835C404.729 878.949 424.858 912.197 444.571 931.008C456.718 942.599 468.865 947.076 476.951 942.981C485.037 938.886 488.924 925.906 486.669 908.657C481.255 867.254 454.531 830.223 433.708 823.663Z" fill="#1A1A1A"/>
<path d="M420.797 668.314C425.413 698.404 420.173 724.19 409.032 725.891C397.892 727.591 385.12 704.443 380.539 674.492C375.958 644.541 381.302 612.369 392.408 610.668C403.514 608.968 416.355 638.224 420.797 668.314Z" fill="#1A1A1A"/>
<path d="M407.818 729.469C393.276 729.469 381.268 702.017 377.138 675.016C372.487 644.753 377.381 609.457 391.888 607.236C408.407 604.772 420.45 643.017 424.233 667.797C428.537 695.874 424.858 726.97 409.588 729.33C409.001 729.406 408.408 729.455 407.818 729.469ZM393.415 614.212H392.929C385.988 615.288 379.047 642.531 383.975 674.079C388.452 703.266 400.564 723.742 408.512 722.667C416.459 721.591 421.873 698.373 417.362 669.046C412.607 637.881 400.564 614.212 393.415 614.212Z" fill="#1A1A1A"/>
<path d="M402.022 652.874C397.232 658.461 398.829 709.617 405.215 718.433C420.832 720.272 448.492 728.15 449.499 756.609C450.852 794.577 419.652 833.412 419.652 833.412C408.581 855.485 450.887 886.685 473.446 854.235C493.02 826.02 511.414 776.426 509.366 738.631C507.318 700.837 473.966 648.154 402.022 652.874Z" fill="#E7343F"/>
<path d="M449.221 871.692C442.783 871.619 436.484 869.836 430.966 866.521C419.097 859.58 410.143 844.865 416.563 831.816C416.664 831.59 416.792 831.382 416.945 831.191C417.257 830.809 447.347 793.015 446.028 756.713C445.091 729.538 416.876 723.326 404.798 722.007C404.323 721.948 403.865 721.792 403.452 721.546C403.039 721.299 402.681 720.973 402.403 720.584C395.462 710.901 393.137 658.114 399.384 650.722C399.683 650.368 400.047 650.08 400.46 649.872C400.869 649.663 401.317 649.538 401.779 649.507C433.014 647.494 460.362 655.962 480.769 674.079C499.478 690.536 510.99 713.674 512.837 738.527C514.954 777.814 495.484 828.553 476.292 856.318C468.413 867.562 458.557 871.692 449.221 871.692ZM422.602 835.217C418.229 844.448 425.413 855.138 434.541 860.552C444.952 866.729 459.841 867.771 470.6 852.257C489.237 825.43 507.943 776.53 505.93 738.805C504.046 715.847 493.395 694.496 476.188 679.181C457.585 662.661 432.701 654.887 404.173 656.24C401.293 664.986 402.646 705.314 407.332 715.24C419.756 717.01 451.859 724.61 452.969 756.435C454.323 793.848 425.795 831.156 422.602 835.217Z" fill="#1A1A1A"/>
<path d="M163.976 711.005C163.976 711.005 115.388 569.129 143.881 462.097C147.56 448.215 168.626 432.389 179.038 428.016C228.216 407.401 277.255 432.146 288.673 503.778C301.098 581.762 334.137 631.113 334.137 631.113L163.976 711.005Z" fill="#1A1A1A"/>
<path d="M284.683 480.526C278.054 507.11 278.818 517.8 275.729 533.729C272.258 551.846 290.965 545.564 288.015 557.607C274.514 612.129 294.956 611.366 311.267 592.521C311.267 592.521 284.023 519.084 284.683 480.526Z" fill="#E7343F"/>
<path d="M163.977 714.48C163.5 714.476 163.029 714.382 162.589 714.202C162.129 714.004 161.717 713.709 161.381 713.338C161.046 712.966 160.795 712.526 160.645 712.05C160.194 710.593 114.07 563.163 142.459 456.374C147.457 437.46 179.004 424.063 180.358 423.508C203.819 413.652 227.28 414.103 246.298 424.792C270.106 438.05 285.898 465.189 291.971 503.227C304.118 579.579 336.568 628.722 336.88 629.208C337.16 629.617 337.349 630.086 337.433 630.575C337.517 631.068 337.494 631.571 337.366 632.054C337.233 632.536 336.996 632.984 336.672 633.369C336.349 633.751 335.946 634.06 335.492 634.275L165.434 714.098C164.982 714.33 164.485 714.459 163.977 714.48ZM213.606 423.334C203.077 423.477 192.682 425.719 183.03 429.929C171.091 434.926 152.246 446.587 149.158 458.179C123.822 553.515 159.187 682.516 166.129 706.185L329.245 629.833C307.048 591.108 292.177 548.625 285.377 504.511C279.72 469.146 264.554 443.047 243.14 431.039C234.135 425.941 223.954 423.286 213.606 423.334Z" fill="#1A1A1A"/>
<path d="M242.168 211.628C199.307 174.874 83.4595 209.545 100.535 315.432C96.0615 317.319 92.3744 320.687 90.0928 324.973C87.8109 329.258 87.0741 334.197 88.006 338.962C89.3626 344.445 92.8283 349.172 97.6499 352.115C102.471 355.062 108.26 355.981 113.758 354.683C121.844 377.971 150.58 406.742 178.588 414.342L181.468 436.484C187.715 454.392 229.709 448.978 229.292 431.105C229.292 428.363 228.147 415.765 227.835 413.197C229.327 412.746 230.854 412.295 232.416 411.739C310.33 384.947 288.743 251.504 242.168 211.628Z" fill="#E7343F"/>
<path d="M202.743 451.095C192.054 451.095 181.434 447.278 178.137 437.734C178.101 437.501 178.101 437.269 178.137 437.04L175.534 417.153C147.388 408.581 120.699 381.025 111.606 358.64C105.6 359.292 99.5615 357.741 94.6139 354.274C89.6659 350.807 86.1461 345.66 84.7093 339.795C83.716 334.707 84.3522 329.437 86.5265 324.732C88.7011 320.028 92.3036 316.13 96.8215 313.591C90.1234 267.397 107.858 228.978 145.652 207.843C179.282 189.032 221.762 189.483 244.459 208.953C275.868 235.919 294.47 300.333 285.065 349.651C278.713 383.003 260.771 405.631 233.457 415.036L231.514 415.696C231.965 420.45 232.624 428.78 232.694 431.001C232.902 440.267 224.365 447.798 210.899 450.263C208.208 450.766 205.48 451.047 202.743 451.095ZM184.8 435.756C187.681 443.217 199.689 445.334 209.649 443.53C217.77 442.037 225.892 437.699 225.753 431.279C225.753 428.606 224.607 416.147 224.295 413.926C224.187 413.103 224.376 412.27 224.828 411.576C225.28 410.886 225.965 410.375 226.759 410.143C228.252 409.726 229.709 409.275 231.202 408.755C262.68 397.927 274.167 370.093 278.262 348.61C287.112 301.86 269.169 239.39 239.913 214.228C219.298 196.563 180.358 196.425 149.123 213.916C113.376 233.941 97.0645 270.729 104.006 314.875C104.128 315.625 104.001 316.394 103.643 317.065C103.286 317.736 102.718 318.271 102.027 318.588C98.3233 320.189 95.2744 323.002 93.3822 326.566C91.4897 330.13 90.8668 334.231 91.6157 338.198C92.7731 342.783 95.6919 346.729 99.7392 349.179C103.787 351.629 108.637 352.382 113.237 351.282C114.063 351.109 114.924 351.241 115.658 351.657C116.393 352.07 116.951 352.74 117.228 353.538C124.655 374.813 152.108 403.618 179.698 411.01C180.363 411.181 180.962 411.548 181.42 412.059C181.877 412.572 182.172 413.211 182.267 413.891L184.8 435.756Z" fill="#1A1A1A"/>
<path d="M189.207 336.983C188.347 336.98 187.518 336.657 186.881 336.081C186.197 335.467 185.783 334.61 185.731 333.69C185.679 332.773 185.993 331.873 186.604 331.187C187.159 330.597 199.792 316.714 212.98 319.63C213.462 319.681 213.927 319.832 214.346 320.073C214.766 320.315 215.13 320.641 215.416 321.032C215.702 321.423 215.903 321.869 216.006 322.342C216.109 322.815 216.112 323.304 216.015 323.778C215.918 324.252 215.722 324.701 215.441 325.095C215.16 325.49 214.8 325.821 214.384 326.067C213.967 326.314 213.503 326.471 213.023 326.527C212.542 326.584 212.054 326.54 211.592 326.397C203.887 324.731 194.725 332.644 191.844 335.838C191.512 336.206 191.105 336.498 190.65 336.695C190.195 336.893 189.703 336.99 189.207 336.983Z" fill="#1A1A1A"/>
<path d="M226.169 385.332C221.666 385.301 217.185 384.679 212.842 383.492C212.003 383.215 211.302 382.625 210.881 381.847C210.46 381.073 210.351 380.164 210.577 379.31C210.803 378.457 211.346 377.717 212.096 377.252C212.845 376.784 213.745 376.621 214.612 376.794C236.407 382.486 244.945 371.103 245.326 370.617C245.874 369.864 246.697 369.364 247.615 369.222C248.533 369.076 249.47 369.305 250.22 369.853C250.97 370.398 251.472 371.224 251.615 372.14C251.758 373.056 251.531 373.994 250.983 374.747C250.602 375.163 243.279 385.332 226.169 385.332Z" fill="#1A1A1A"/>
<path d="M186.673 314.598C185.485 314.603 184.332 314.203 183.403 313.463C182.474 312.723 181.827 311.688 181.567 310.529C181.308 309.37 181.453 308.157 181.977 307.092C182.502 306.027 183.375 305.173 184.452 304.672C190.193 302.085 195.779 299.165 201.18 295.926C202.283 295.152 203.644 294.836 204.976 295.044C206.308 295.252 207.507 295.969 208.321 297.044C209.134 298.119 209.499 299.467 209.339 300.806C209.179 302.144 208.506 303.368 207.462 304.221C201.505 307.917 195.315 311.221 188.929 314.112C188.218 314.426 187.45 314.591 186.673 314.598Z" fill="#1A1A1A"/>
<path d="M252.927 290.758H248.276C246.896 290.703 245.594 290.101 244.656 289.086C243.719 288.071 243.224 286.725 243.279 285.344C243.334 283.963 243.935 282.661 244.951 281.724C245.966 280.786 247.312 280.291 248.693 280.346C252.686 280.572 256.69 280.467 260.666 280.034C262.047 279.836 263.45 280.195 264.566 281.031C265.682 281.867 266.42 283.113 266.618 284.494C266.816 285.874 266.458 287.277 265.621 288.393C264.785 289.509 263.539 290.248 262.159 290.445C259.092 290.757 256.008 290.862 252.927 290.758Z" fill="#1A1A1A"/>
<path d="M248.172 310.296C247.443 310.272 246.74 310.02 246.162 309.575C245.585 309.129 245.163 308.513 244.955 307.814C244.747 307.115 244.766 306.368 245.007 305.679C245.248 304.991 245.7 304.396 246.298 303.979C246.958 303.563 261.916 293.568 272.917 299.086C273.746 299.523 274.367 300.271 274.643 301.166C274.92 302.061 274.83 303.029 274.392 303.858C273.955 304.686 273.207 305.307 272.312 305.584C271.417 305.86 270.449 305.77 269.62 305.333C263.582 302.209 253.482 307.484 250.116 309.775C249.534 310.137 248.857 310.318 248.172 310.296Z" fill="#1A1A1A"/>
<path d="M239.773 326.155C255.495 327.925 262.61 342.12 244.806 350.449L239.773 326.155Z" fill="#E7343F"/>
<path d="M244.84 353.92C244.177 353.92 243.526 353.732 242.966 353.375C242.407 353.017 241.961 352.507 241.682 351.907C241.49 351.49 241.381 351.043 241.362 350.585C241.344 350.13 241.415 349.672 241.574 349.245C241.732 348.815 241.973 348.422 242.283 348.086C242.594 347.753 242.967 347.482 243.383 347.291C249.213 344.584 252.267 341.113 251.747 337.747C251.226 334.381 246.784 330.423 239.357 329.625C238.903 329.573 238.464 329.432 238.065 329.21C237.665 328.989 237.314 328.69 237.03 328.332C236.746 327.975 236.536 327.564 236.411 327.125C236.287 326.685 236.25 326.226 236.303 325.772C236.407 324.863 236.868 324.031 237.583 323.459C238.298 322.887 239.21 322.621 240.121 322.718C249.977 323.829 257.473 329.382 258.549 336.602C259.07 339.76 258.862 347.742 246.229 353.573C245.795 353.781 245.322 353.899 244.84 353.92Z" fill="#1A1A1A"/>
<path d="M166.233 406.776C166.233 406.776 183.863 415.626 201.563 412.433C207.463 410.872 207.046 415.904 204.374 417.813C201.702 419.722 188.548 427.253 179.004 426.975C178.033 422.394 176.714 415.002 176.714 415.002L166.233 406.776Z" fill="#1A1A1A"/>
<path d="M159.742 695.943C159.742 695.943 248.901 635.903 321.297 621.153C353.885 694.937 352.046 747.863 352.046 747.863C352.046 747.863 263.859 775.28 219.401 766.916C174.943 758.552 159.742 695.943 159.742 695.943Z" fill="white"/>
<path d="M239.6 771.879C232.62 771.955 225.648 771.372 218.777 770.144C172.653 761.294 157.036 699.414 156.307 696.776C156.135 696.086 156.179 695.357 156.434 694.694C156.688 694.031 157.141 693.458 157.73 693.063C158.632 692.473 248.277 632.467 320.534 617.786C321.305 617.63 322.106 617.741 322.806 618.099C323.506 618.46 324.063 619.046 324.386 619.765C356.939 693.445 355.62 745.815 355.62 748.175C355.596 748.894 355.35 749.584 354.916 750.157C354.479 750.73 353.878 751.153 353.191 751.368C349.929 752.201 285.932 771.879 239.6 771.879ZM163.769 697.505C167.031 708.646 183.065 756.262 220.061 763.446C259.105 770.942 334.138 749.563 348.471 745.433C348.471 734.362 346.042 687.267 319.145 625.248C254.94 639.2 177.373 688.586 163.769 697.505Z" fill="#1A1A1A"/>
<path d="M353.26 683.939C363.672 716.284 362.804 745.541 351.178 749.324C339.551 753.107 321.573 729.958 311.092 697.613C300.611 665.267 300.681 629.069 312.134 625.321C323.586 621.573 342.779 651.593 353.26 683.939Z" fill="#1A1A1A"/>
<path d="M348.471 753.208C333.514 753.208 316.751 726.311 307.797 698.65C302.688 683.168 300.008 666.988 299.849 650.687C299.849 639.234 301.966 624.936 311.059 621.986C327.128 616.78 347.36 654.435 356.557 682.859C366.275 712.845 368.08 747.481 352.254 752.618C351.036 753.017 349.755 753.218 348.471 753.208ZM314.321 628.267C313.943 628.254 313.567 628.313 313.211 628.441C310.33 629.378 306.929 635.729 306.79 650.583C306.941 666.142 309.505 681.586 314.391 696.36C324.629 727.977 341.704 748.592 350.102 745.85C358.501 743.108 360.202 716.454 350.102 684.803C339.379 652.388 322.443 628.441 314.321 628.441V628.267Z" fill="#1A1A1A"/>
<path d="M501.349 628.857C435.409 601.544 389.354 602.377 310.469 630.697C305.818 642.427 305.367 658.878 312.898 682.096C313.106 682.686 319.839 702.919 319.839 703.37C341.426 691.64 404.659 651.312 485.315 685.67C572.912 722.875 525.817 638.991 501.349 628.857Z" fill="#E7343F"/>
<path d="M306.199 644.648C306.199 644.648 436.797 603.002 497.531 629.933C466.296 617.058 419.027 588.842 308.628 631.773C307.414 637.291 306.199 644.648 306.199 644.648Z" fill="white"/>
<path d="M321.019 709.51C320.591 709.499 320.169 709.419 319.769 709.267C319.293 709.086 318.863 708.805 318.51 708.437C318.156 708.073 317.887 707.632 317.722 707.15L315.084 700.209C312.585 693.788 312.03 692.33 311.891 692.018C304.256 668.384 302.347 642.007 307.379 629.305C307.565 628.847 307.847 628.434 308.206 628.09C308.565 627.75 308.993 627.49 309.462 627.327C389.493 598.521 436.45 598.105 502.703 625.557C517.522 631.7 537.061 659.43 539.386 677.615C540.636 687.333 536.957 692.33 533.66 694.968C525.157 701.423 508.984 699.445 484.239 688.895C411.878 658.041 353.746 691.359 328.931 705.588L322.684 709.059C322.176 709.347 321.603 709.503 321.019 709.51ZM313.349 633.4C309.566 645.166 311.717 668.974 318.52 689.936C318.52 690.387 320.151 694.17 321.539 697.779C321.99 698.924 322.441 700.035 322.823 701.042L325.496 699.514C351.213 684.799 411.427 650.267 486.981 682.474C515.717 694.725 525.955 692.088 529.495 689.415C532.133 687.402 533.139 683.758 532.48 678.587C530.328 661.755 511.657 636.94 500.03 632.082C436.103 605.566 390.534 605.844 313.349 633.4Z" fill="#1A1A1A"/>
<path d="M52.987 513.146C52.987 513.146 100.291 547.157 110.147 565.586C126.528 553.161 139.473 542.68 153.703 534.941C180.356 520.399 170.743 436.238 146.449 448.628C115.388 464.454 78.6691 491.246 52.987 513.146Z" fill="white"/>
<path d="M110.147 569.094H109.384C108.891 568.987 108.427 568.772 108.026 568.466C107.624 568.161 107.294 567.772 107.058 567.324C97.7225 549.972 51.5294 516.411 50.9741 516.064C50.5476 515.759 50.196 515.36 49.9458 514.898C49.6955 514.437 49.5536 513.923 49.53 513.399C49.5067 512.875 49.6025 512.351 49.8108 511.868C50.0186 511.386 50.3334 510.959 50.7312 510.616C74.7127 490.174 112.021 462.375 144.887 445.647C148.636 443.703 158.145 440.823 165.711 455.121C177.337 477.159 176.643 526.511 155.299 538.068C142.892 545.338 131.048 553.529 119.865 562.57L112.16 568.47C111.57 568.883 110.867 569.101 110.147 569.094ZM58.6093 512.941C69.021 520.819 99.9784 544.176 111.084 560.522L115.735 557.052C127.183 547.792 139.319 539.414 152.037 531.994C169.39 522.45 169.39 477.229 159.533 458.349C154.397 448.597 149.607 451.026 148.046 451.824C117.192 467.442 82.2785 493.124 58.6093 512.941Z" fill="#1A1A1A"/>
<path d="M107.385 563.816C110.851 559.741 100.857 545.543 85.064 532.102C69.2705 518.66 53.6575 511.067 50.1915 515.138C46.7254 519.212 56.7189 533.41 72.5127 546.852C88.3062 560.293 103.919 567.887 107.385 563.816Z" fill="#1A1A1A"/>
<path d="M104.421 568.327C95.1196 568.327 79.5368 557.43 70.2704 549.517C58.644 539.626 40.8053 520.816 47.5382 512.903C50.4535 509.432 56.0064 509.814 64.5092 513.944C72.7084 518.188 80.3645 523.411 87.3108 529.492C94.4098 535.368 100.772 542.08 106.26 549.482C111.709 557.222 112.924 562.636 110.008 566.072C109.306 566.845 108.439 567.449 107.472 567.838C106.504 568.23 105.461 568.397 104.421 568.327ZM52.9523 517.518C52.9523 520.642 59.8934 531.401 74.7474 544.242C89.6014 557.083 101.505 561.976 104.629 561.595C104.629 558.436 97.6878 547.712 82.7991 534.871C67.8757 522.065 56.0411 517.033 52.9523 517.518Z" fill="#1A1A1A"/>
<path d="M577.701 578.538C577.701 578.538 550.943 572.395 519.257 606.684C487.571 640.973 495.484 687.27 495.484 687.27L522.311 712.744L577.701 578.538Z" fill="#1A1A1A"/>
<path d="M522.311 716.211C521.423 716.218 520.566 715.882 519.917 715.274L493.089 689.8C492.541 689.283 492.173 688.6 492.048 687.857C491.701 685.913 484.239 639.443 516.724 604.321C549.208 569.198 577.285 574.89 578.465 575.168C578.954 575.282 579.412 575.501 579.808 575.806C580.204 576.115 580.53 576.508 580.759 576.952C580.991 577.396 581.123 577.885 581.144 578.389C581.168 578.888 581.082 579.388 580.894 579.853L525.365 714.06C525.154 714.58 524.82 715.042 524.39 715.406C523.96 715.767 523.45 716.02 522.901 716.142L522.311 716.211ZM498.746 685.601L521.027 706.737L572.669 581.797C564.236 581.797 544.349 584.816 521.825 609.214C494.373 638.748 497.844 678.486 498.746 685.601Z" fill="#1A1A1A"/>
<path d="M549.243 593.874C549.243 593.874 527.135 619.279 516.932 677.688C509.054 722.805 535.118 723.43 555.316 691.779C575.515 660.127 583.775 646.661 590.785 614.35C599.253 575.55 566.595 566.526 549.243 593.874Z" fill="white"/>
<path d="M528.003 717.256C526.282 717.263 524.574 716.947 522.971 716.319C517.244 714.098 508.429 705.907 513.496 677.067C523.387 620.497 544.141 594.572 546.466 591.795C555.524 577.635 569.476 571.354 581.172 576.178C590.681 580.1 599.115 592.351 594.152 615.083C587.211 647.567 578.569 661.796 558.231 693.656C548.722 708.58 537.373 717.256 528.003 717.256ZM573.12 581.557C565.832 581.557 557.78 586.798 552.123 595.717C552.037 595.866 551.932 596.009 551.811 596.134C551.603 596.411 530.155 621.712 520.264 678.282C516.793 698.688 520.576 707.99 525.4 709.864C530.883 711.981 541.642 706.636 552.331 689.908C573.155 657.424 580.582 644.583 587.349 613.556C591.375 595.058 585.406 585.409 578.5 582.564C576.809 581.897 575.008 581.554 573.19 581.557H573.12Z" fill="#1A1A1A"/>
<path d="M590.334 614.597H589.883L557.433 610.745C556.514 610.637 555.67 610.172 555.094 609.447C554.522 608.718 554.254 607.795 554.362 606.875C554.466 605.955 554.935 605.112 555.66 604.536C556.385 603.96 557.312 603.696 558.232 603.803L590.716 607.482C591.636 607.531 592.5 607.947 593.114 608.634C593.728 609.318 594.044 610.224 593.996 611.144C593.944 612.063 593.531 612.928 592.843 613.542C592.156 614.156 591.254 614.472 590.334 614.423V614.597Z" fill="#1A1A1A"/>
<path d="M581.762 636.041H581.345L548.861 632.363C548.406 632.311 547.966 632.172 547.567 631.95C547.167 631.728 546.817 631.429 546.532 631.072C546.251 630.714 546.039 630.301 545.915 629.864C545.79 629.423 545.751 628.965 545.807 628.51C545.911 627.601 546.369 626.768 547.088 626.199C547.803 625.626 548.712 625.359 549.625 625.456L582.144 629.135C583.063 629.187 583.928 629.6 584.542 630.287C585.156 630.974 585.472 631.877 585.423 632.796C585.371 633.716 584.958 634.58 584.271 635.195C583.584 635.809 582.682 636.128 581.762 636.076V636.041Z" fill="#1A1A1A"/>
<path d="M573.155 657.528H572.773L540.254 653.849C539.334 653.741 538.494 653.276 537.918 652.547C537.342 651.822 537.078 650.899 537.183 649.979C537.29 649.056 537.755 648.216 538.481 647.64C539.206 647.064 540.133 646.8 541.052 646.908L573.537 650.587C574.456 650.635 575.321 651.052 575.935 651.735C576.549 652.422 576.868 653.325 576.816 654.248C576.768 655.168 576.351 656.028 575.664 656.646C574.98 657.26 574.075 657.576 573.155 657.528Z" fill="#1A1A1A"/>
<path d="M564.583 678.833H564.201L532.966 675.363C532.511 675.311 532.07 675.169 531.668 674.946C531.269 674.724 530.915 674.422 530.63 674.065C530.342 673.704 530.134 673.291 530.005 672.85C529.88 672.409 529.842 671.948 529.894 671.493C529.946 671.039 530.089 670.594 530.311 670.195C530.533 669.793 530.835 669.442 531.192 669.154C531.553 668.869 531.966 668.658 532.407 668.533C532.848 668.408 533.309 668.37 533.764 668.422L564.999 671.892C565.454 671.917 565.901 672.031 566.314 672.229C566.724 672.427 567.092 672.704 567.397 673.045C567.703 673.385 567.935 673.78 568.088 674.211C568.241 674.641 568.303 675.099 568.279 675.554C568.254 676.008 568.14 676.456 567.942 676.866C567.744 677.279 567.467 677.646 567.127 677.952C566.786 678.257 566.391 678.49 565.96 678.643C565.53 678.792 565.072 678.858 564.617 678.833H564.583Z" fill="#1A1A1A"/>
<path d="M553.407 697.502H553.026L529.079 694.795C528.624 694.742 528.183 694.604 527.781 694.378C527.378 694.156 527.028 693.857 526.743 693.497C526.455 693.139 526.243 692.726 526.118 692.285C525.994 691.845 525.955 691.383 526.007 690.925C526.059 690.47 526.202 690.029 526.424 689.63C526.646 689.228 526.948 688.874 527.305 688.589C527.666 688.305 528.076 688.093 528.52 687.968C528.961 687.84 529.422 687.801 529.877 687.853L553.789 690.56C554.709 690.612 555.573 691.025 556.187 691.713C556.802 692.4 557.121 693.302 557.069 694.222C557.017 695.145 556.604 696.006 555.917 696.62C555.229 697.238 554.327 697.554 553.407 697.502Z" fill="#1A1A1A"/>
<path d="M263.65 781.284C262.858 781.305 262.081 781.059 261.449 780.576C260.818 780.097 260.37 779.417 260.18 778.647C249.282 734.432 240.259 691.57 230.715 646.176C193.614 469.038 155.091 285.861 0.304377 -4.76319C-0.055705 -5.56534 -0.0979 -6.47425 0.186317 -7.30631C0.470533 -8.13838 1.05998 -8.83152 1.83555 -9.24577C2.61112 -9.65998 3.51503 -9.76441 4.36462 -9.53788C5.21418 -9.31139 5.94612 -8.77085 6.41256 -8.02552C161.685 283.467 202.048 475.389 237.621 644.753C247.165 690.078 256.154 732.87 267.017 776.981C267.237 777.873 267.094 778.817 266.619 779.605C266.144 780.392 265.376 780.958 264.483 781.18L263.65 781.284Z" fill="#1A1A1A"/>
<path d="M231.686 636.802C230.879 636.819 230.091 636.555 229.457 636.055C228.824 635.556 228.385 634.851 228.215 634.06C216.381 577.837 204.442 522.481 188.686 463.031C188.537 462.583 188.482 462.108 188.523 461.636C188.565 461.164 188.703 460.705 188.929 460.289C189.154 459.872 189.463 459.505 189.835 459.213C190.208 458.922 190.636 458.706 191.094 458.585C191.552 458.463 192.03 458.439 192.498 458.509C192.966 458.581 193.415 458.745 193.817 458.998C194.219 459.248 194.565 459.577 194.835 459.966C195.104 460.355 195.291 460.796 195.384 461.261C211.21 520.85 223.148 576.31 235.018 632.637C235.109 633.085 235.111 633.546 235.025 633.99C234.938 634.438 234.764 634.865 234.512 635.247C234.261 635.625 233.937 635.955 233.559 636.208C233.182 636.465 232.757 636.642 232.311 636.732L231.686 636.802Z" fill="white"/>
<path d="M213.397 534.837C186.465 539.383 190.005 550.628 180.6 557.013C180.6 557.013 107.718 595.19 93.5932 585.923C97.0371 576.785 102.411 568.501 109.35 561.629C103.05 551.627 95.4135 542.531 86.6521 534.594C81.12 529.822 75.1864 525.539 68.9175 521.787C52.4421 540.008 41.5939 562.608 37.6825 586.86C24.529 671.16 133.817 643.951 187.715 603.241C187.715 603.241 205.415 596.3 223.878 586.27C226.759 590.817 226.585 591.684 226.585 591.684C226.585 591.684 247.165 590.261 242.931 566.037C238.697 541.812 235.886 531.088 213.397 534.837Z" fill="#E7343F"/>
<path d="M81.2384 529.256C81.2384 529.256 41.5699 567.432 50.8363 609.079C60.1027 650.725 130.659 628.896 130.659 628.896C130.659 628.896 52.641 668.946 37.8217 610.397C25.3972 561.22 68.0503 521.586 68.0503 521.586L81.2384 529.256Z" fill="white"/>
<path d="M85.681 645.447C74.1085 645.901 62.6258 643.239 52.4331 637.742C41.5355 631.217 29.4233 616.988 34.2127 586.447C38.2482 561.525 49.4234 538.304 66.3847 519.604C66.9189 518.997 67.6477 518.594 68.4463 518.469C69.2445 518.341 70.0621 518.497 70.7576 518.91C77.1837 522.797 83.2777 527.208 88.9781 532.098C97.9495 540.275 105.793 549.614 112.3 559.863C112.702 560.522 112.872 561.296 112.784 562.063C112.696 562.83 112.355 563.545 111.814 564.097C99.2162 577.111 96.7868 583.22 96.8909 584.677C97.4084 585.503 98.2323 586.09 99.1815 586.308C113.55 590.681 161.652 564.479 178.796 554.032C179.073 553.855 179.378 553.727 179.698 553.65C182.711 552.2 185.33 550.044 187.334 547.369C193.766 539.383 202.684 533.774 212.669 531.439C221.831 529.391 228.39 529.981 233.492 533.278C241.231 538.484 243.661 549.382 246.472 565.416C248.138 575.029 246.854 582.421 242.585 587.454C240.925 589.283 238.908 590.754 236.658 591.774C234.407 592.795 231.972 593.343 229.501 593.388C228.878 593.357 228.271 593.18 227.731 592.868C225.669 591.476 223.822 589.793 222.247 587.87C205.728 598.282 194.136 605.952 193.997 606.056C164.463 628.476 120.213 645.447 85.681 645.447ZM69.6818 526.233C54.632 543.541 44.7156 564.708 41.0497 587.349C37.5791 608.902 42.7155 623.86 56.0078 631.807C85.5075 649.473 151.101 629.829 190.006 600.572C190.318 600.364 203.264 591.896 221.241 580.478C221.626 580.235 222.056 580.068 222.505 579.988C222.954 579.912 223.414 579.923 223.859 580.023C224.303 580.124 224.724 580.308 225.097 580.572C225.469 580.835 225.787 581.168 226.03 581.554C227.245 583.459 228.77 585.149 230.542 586.551C233.111 586.242 235.48 585.007 237.206 583.081C239.982 579.784 240.676 574.127 239.496 566.804C236.997 552.54 234.95 542.926 229.501 539.282C226.239 537.096 221.38 536.818 214.161 538.415C205.554 540.441 197.893 545.338 192.435 552.297C189.699 555.823 186.118 558.603 182.024 560.383C173.799 565.346 116.743 599.149 97.1339 593.145C95.6766 592.75 94.3227 592.042 93.166 591.07C92.0093 590.102 91.0778 588.89 90.4357 587.523V587.211C89.7069 585.094 87.8675 579.645 105.047 561.459C99.2745 552.613 92.3931 544.54 84.5705 537.443C79.8786 533.368 74.9032 529.634 69.6818 526.268V526.233Z" fill="#1A1A1A"/>
<path d="M357.633 512.521C361.67 512.497 365.581 511.115 368.739 508.599C370.596 507.381 372.133 505.729 373.22 503.792C374.306 501.852 374.913 499.683 374.986 497.459C374.986 497.459 387.098 502.873 392.339 500.652C398.412 498.083 397.441 491.524 391.818 488.643C386.196 485.763 379.741 484.375 375.403 482.119" fill="#E7343F"/>
<path d="M358.154 516.026C357.852 516.061 357.55 516.061 357.252 516.026C356.332 515.929 355.485 515.471 354.902 514.752C354.322 514.034 354.048 513.111 354.145 512.191C354.243 511.271 354.701 510.428 355.419 509.845C356.137 509.262 357.061 508.988 357.98 509.085C361.194 508.863 364.262 507.652 366.761 505.614C368.153 504.716 369.312 503.497 370.138 502.061C370.964 500.624 371.436 499.01 371.516 497.354C371.516 496.775 371.661 496.202 371.942 495.692C372.22 495.185 372.623 494.752 373.112 494.439C373.591 494.116 374.143 493.919 374.719 493.863C375.295 493.811 375.878 493.901 376.409 494.127C380.921 496.14 388.452 498.361 390.951 497.32C391.853 496.938 392.929 496.244 392.964 495.133C392.863 494.359 392.554 493.631 392.072 493.02C391.589 492.409 390.951 491.94 390.222 491.663C387.397 490.292 384.471 489.133 381.476 488.192C378.831 487.359 376.256 486.325 373.771 485.103C373.334 484.916 372.938 484.638 372.612 484.291C372.286 483.941 372.036 483.531 371.876 483.08C371.717 482.632 371.651 482.153 371.682 481.678C371.717 481.202 371.845 480.741 372.067 480.317C372.286 479.894 372.591 479.519 372.963 479.221C373.331 478.919 373.761 478.7 374.219 478.572C374.681 478.443 375.16 478.412 375.632 478.482C376.104 478.548 376.558 478.711 376.964 478.961C379.217 480.002 381.535 480.894 383.905 481.633C387.195 482.691 390.409 483.979 393.519 485.485C395.445 486.349 397.083 487.745 398.239 489.511C399.394 491.274 400.023 493.336 400.044 495.446C399.929 497.292 399.277 499.065 398.166 500.544C397.055 502.026 395.535 503.147 393.796 503.775C389.389 505.649 382.344 503.775 377.797 502.179C376.565 505.927 374.122 509.161 370.856 511.376C367.188 514.173 362.759 515.794 358.154 516.026Z" fill="#1A1A1A"/>
<path d="M335.629 752.548C322.92 752.399 310.333 750.049 298.425 745.607C277.81 737.972 270.07 741.165 275.38 747.828C280.69 754.492 262.088 759.35 244.805 752.687C227.521 746.023 212.494 730.996 202.742 738.076C192.989 745.156 207.6 763.758 217.353 767.298C227.105 770.838 312.238 765.389 335.629 752.548Z" fill="#1A1A1A"/>
<path d="M94.1839 545.214C94.1839 545.214 63.6083 585.507 79.1217 594.391C99.4591 605.983 131.77 583.32 131.77 583.32C131.77 583.32 86.1322 598.799 96.3356 578.739C103.485 564.857 108.517 560.276 108.517 560.276L94.1839 545.214Z" fill="#1A1A1A"/>
<path d="M508.741 730.264C507.488 743.386 502.557 755.883 494.512 766.323C478.895 787.944 473.342 826.433 485.211 818.902C494.234 813.21 501.106 803.735 505.514 785.897C508.325 774.479 512.142 750.636 508.741 730.264Z" fill="#1A1A1A"/>
<path d="M460.709 891.853C456.832 891.953 452.976 891.232 449.395 889.736C448.951 889.562 448.548 889.298 448.211 888.962C447.875 888.625 447.611 888.223 447.434 887.778C447.26 887.334 447.181 886.862 447.195 886.383C447.212 885.908 447.326 885.439 447.531 885.009C447.739 884.579 448.031 884.197 448.388 883.884C448.749 883.572 449.169 883.336 449.624 883.194C450.079 883.051 450.561 883.003 451.033 883.055C451.508 883.107 451.967 883.253 452.38 883.489C453.004 883.766 466.262 889.562 484.274 875.923C484.631 875.6 485.051 875.354 485.509 875.201C485.968 875.052 486.45 874.996 486.929 875.041C487.411 875.087 487.876 875.232 488.296 875.465C488.716 875.701 489.084 876.02 489.376 876.405C489.664 876.791 489.872 877.231 489.983 877.7C490.094 878.168 490.104 878.654 490.018 879.13C489.928 879.602 489.744 880.053 489.473 880.452C489.199 880.851 488.848 881.188 488.439 881.441C480.609 887.9 470.853 891.561 460.709 891.853Z" fill="white"/>
<path d="M465.602 913.998C461.722 914.096 457.866 913.377 454.288 911.881C453.844 911.708 453.442 911.444 453.105 911.107C452.768 910.771 452.501 910.368 452.327 909.924C452.154 909.48 452.071 909.004 452.088 908.529C452.105 908.053 452.22 907.585 452.425 907.154C452.629 906.724 452.921 906.342 453.282 906.03C453.643 905.718 454.063 905.482 454.517 905.339C454.972 905.197 455.451 905.149 455.926 905.201C456.398 905.253 456.857 905.398 457.273 905.634C457.898 905.912 471.155 911.708 489.167 898.069C489.525 897.746 489.945 897.499 490.403 897.347C490.858 897.194 491.343 897.142 491.822 897.187C492.301 897.232 492.766 897.374 493.19 897.61C493.61 897.846 493.978 898.166 494.266 898.551C494.557 898.936 494.765 899.377 494.873 899.846C494.984 900.314 494.998 900.8 494.908 901.275C494.821 901.747 494.634 902.199 494.363 902.598C494.092 902.993 493.742 903.333 493.332 903.587C485.502 910.046 475.747 913.707 465.602 913.998Z" fill="white"/>
<path d="M114.104 339.548C113.367 339.545 112.651 339.309 112.058 338.871C111.466 338.434 111.027 337.82 110.806 337.119C109.314 332.365 106.885 331.844 106.781 331.809C105.884 331.704 105.064 331.254 104.494 330.555C103.923 329.855 103.648 328.961 103.727 328.061C103.77 327.601 103.904 327.155 104.122 326.747C104.34 326.34 104.637 325.98 104.996 325.69C105.355 325.399 105.768 325.183 106.212 325.053C106.655 324.924 107.12 324.885 107.579 324.938C108.273 324.938 114.52 325.84 117.435 335.036C117.575 335.474 117.626 335.935 117.586 336.393C117.546 336.852 117.416 337.296 117.203 337.702C116.99 338.108 116.698 338.469 116.345 338.76C115.992 339.055 115.584 339.274 115.145 339.409C114.807 339.51 114.455 339.555 114.104 339.548Z" fill="#1A1A1A"/>
<path d="M82.6603 316.574C82.6603 316.574 168.626 307.273 243.486 268.854C241.334 259.241 234.185 244.942 228.875 233.281C237.517 236.3 252.371 251.015 261.116 260.559C271.309 255.097 280.786 248.394 289.332 240.604C275.45 219.364 236.024 161.857 147.039 192.016C58.054 222.175 82.6603 316.574 82.6603 316.574Z" fill="#1A1A1A"/>
<path d="M82.6606 320.081C81.8724 320.106 81.0996 319.862 80.4686 319.389C79.8377 318.916 79.3868 318.242 79.1901 317.478C78.9471 316.472 54.8962 219.713 145.894 188.825C238.905 157.208 279.059 218.567 292.248 238.697C292.721 239.408 292.915 240.268 292.793 241.113C292.671 241.959 292.242 242.729 291.588 243.278C282.85 251.24 273.164 258.094 262.748 263.685C262.07 264.052 261.29 264.183 260.529 264.057C259.769 263.931 259.072 263.556 258.548 262.99C251.827 255.514 244.553 248.553 236.788 242.167C240.95 250.49 244.331 259.18 246.887 268.127C247.057 268.878 246.971 269.665 246.644 270.362C246.318 271.06 245.769 271.628 245.083 271.979C170.5 310.225 83.91 319.942 83.1812 320.046L82.6606 320.081ZM194.829 186.985C178.948 187.202 163.211 190.04 148.254 195.384C71.1731 221.587 82.0359 296.62 85.3677 312.758C101.089 310.711 174.492 299.674 239.356 267.155C236.338 258.217 232.709 249.497 228.493 241.057C227.522 238.939 226.55 236.892 225.648 234.879C225.364 234.26 225.269 233.572 225.374 232.899C225.479 232.226 225.779 231.599 226.238 231.096C226.696 230.593 227.293 230.236 227.953 230.069C228.614 229.903 229.308 229.934 229.951 230.159C239.391 233.421 254.245 248.275 261.741 256.327C269.961 251.772 277.655 246.325 284.682 240.085C273.645 223.183 247.234 186.985 194.829 186.985Z" fill="#1A1A1A"/>
<path d="M132.185 201.561C131.617 201.562 131.057 201.423 130.555 201.157C130.052 200.89 129.624 200.505 129.305 200.034C126.183 195.25 124.162 189.833 123.388 184.173C122.614 178.514 123.106 172.753 124.828 167.307C124.973 166.866 125.206 166.459 125.511 166.11C125.817 165.76 126.189 165.476 126.607 165.273C127.024 165.07 127.477 164.953 127.941 164.929C128.404 164.904 128.868 164.973 129.304 165.131C129.74 165.288 130.141 165.532 130.481 165.847C130.822 166.163 131.096 166.543 131.287 166.966C131.478 167.388 131.582 167.846 131.593 168.309C131.604 168.773 131.523 169.235 131.353 169.667C129.972 174.061 129.567 178.705 130.166 183.273C130.766 187.84 132.355 192.222 134.823 196.112C135.346 196.867 135.549 197.799 135.387 198.703C135.224 199.608 134.709 200.411 133.955 200.936C133.434 201.303 132.822 201.519 132.185 201.561Z" fill="#1A1A1A"/>
<path d="M136.35 200.073C135.529 200.086 134.729 199.808 134.093 199.287C133.458 198.765 133.028 198.036 132.88 197.227C132.252 192.975 132.578 188.636 133.832 184.524C135.086 180.413 137.239 176.632 140.133 173.454C140.456 173.128 140.84 172.871 141.263 172.694C141.686 172.518 142.139 172.427 142.597 172.427C143.056 172.427 143.51 172.518 143.932 172.694C144.355 172.871 144.739 173.128 145.062 173.454C145.708 174.104 146.071 174.984 146.071 175.901C146.071 176.818 145.708 177.697 145.062 178.347C142.958 180.744 141.395 183.565 140.479 186.619C139.562 189.673 139.314 192.889 139.752 196.047C139.832 196.496 139.822 196.957 139.724 197.402C139.626 197.847 139.441 198.269 139.18 198.643C138.919 199.017 138.587 199.335 138.203 199.581C137.819 199.826 137.39 199.993 136.94 200.073H136.35Z" fill="#1A1A1A"/>
<path d="M95.5013 304.119C94.7038 304.141 93.9233 303.887 93.2913 303.4C92.6593 302.913 92.214 302.224 92.0308 301.447C89.0499 287.084 88.8969 272.278 91.5796 257.857C91.6306 257.375 91.7816 256.91 92.0231 256.491C92.2647 256.071 92.5913 255.706 92.9821 255.421C93.3725 255.135 93.8188 254.934 94.2918 254.831C94.7649 254.728 95.2542 254.725 95.7283 254.822C96.2027 254.919 96.6511 255.115 97.0454 255.396C97.4396 255.677 97.7707 256.037 98.0171 256.454C98.2639 256.87 98.4208 257.334 98.4777 257.815C98.5343 258.295 98.4898 258.782 98.3472 259.245C95.9414 272.688 96.0944 286.464 98.7984 299.851C99.0073 300.743 98.8542 301.682 98.3732 302.463C97.8919 303.243 97.1214 303.801 96.2301 304.015C95.9917 304.076 95.7474 304.111 95.5013 304.119Z" fill="white"/>
<path d="M112.924 297.457C112.132 297.48 111.355 297.231 110.723 296.751C110.092 296.271 109.644 295.589 109.454 294.819C107.406 284.974 107.3 274.823 109.141 264.937C109.233 264.482 109.412 264.048 109.671 263.662C109.93 263.276 110.262 262.945 110.649 262.687C111.036 262.429 111.469 262.25 111.925 262.16C112.381 262.069 112.85 262.07 113.306 262.161C113.762 262.252 114.195 262.432 114.581 262.691C114.967 262.95 115.299 263.282 115.557 263.668C115.814 264.055 115.994 264.489 116.084 264.945C116.174 265.401 116.174 265.87 116.082 266.326C114.465 275.215 114.548 284.33 116.325 293.188C116.434 293.632 116.453 294.094 116.383 294.546C116.313 294.998 116.153 295.432 115.914 295.822C115.676 296.212 115.362 296.551 114.992 296.82C114.622 297.088 114.202 297.281 113.757 297.387C113.484 297.449 113.204 297.473 112.924 297.457Z" fill="white"/>
</svg>
