<svg width="40" height="40" viewBox="0 0 40 40" fill="none" xmlns="http://www.w3.org/2000/svg">
<path fill-rule="evenodd" clip-rule="evenodd" d="M8.33341 21.6667H28.1084L22.0534 28.9333C21.4634 29.64 21.5601 30.6917 22.2667 31.28C22.9751 31.87 24.0251 31.7733 24.6151 31.0667L32.9484 21.0667C33.0134 20.9883 33.0451 20.8967 33.0934 20.81C33.1334 20.74 33.1817 20.68 33.2117 20.6033C33.2867 20.4117 33.3317 20.21 33.3317 20.0067C33.3317 20.005 33.3334 20.0017 33.3334 20C33.3334 19.9983 33.3317 19.995 33.3317 19.9933C33.3317 19.79 33.2867 19.5883 33.2117 19.3967C33.1817 19.32 33.1334 19.26 33.0934 19.19C33.0451 19.1033 33.0134 19.0117 32.9484 18.9333L24.6151 8.93333C24.2834 8.53833 23.8101 8.33333 23.3334 8.33333C22.9567 8.33333 22.5784 8.45999 22.2667 8.71999C21.5601 9.30833 21.4634 10.36 22.0534 11.0667L28.1084 18.3333H8.33341C7.41341 18.3333 6.66675 19.08 6.66675 20C6.66675 20.92 7.41341 21.6667 8.33341 21.6667" fill="black"/>
</svg>
