<svg width="20" height="22" viewBox="0 0 20 22" fill="none" xmlns="http://www.w3.org/2000/svg">
<path id="stethoscope" d="M3.33333 0.5C3.041 0.500233 2.75386 0.57797 2.50075 0.725409C2.24763 0.872848 2.03744 1.0848 1.89128 1.34H1.66667C0.755781 1.34 0 2.10183 0 3.02V8.06C0 10.8841 1.74509 13.306 4.20247 14.2977C4.33547 15.2341 4.9725 15.9975 5.83333 16.3058V16.46C5.83333 19.2334 8.08198 21.5 10.8333 21.5H13.3333C16.0847 21.5 18.3333 19.2334 18.3333 16.46V12.954C18.8204 12.7804 19.2422 12.4589 19.5407 12.0338C19.8392 11.6087 19.9996 11.1008 20 10.58C20 9.91165 19.7366 9.27068 19.2678 8.79809C18.7989 8.3255 18.163 8.06 17.5 8.06C16.837 8.06 16.2011 8.3255 15.7322 8.79809C15.2634 9.27068 15 9.91165 15 10.58C15.0007 11.1005 15.1613 11.608 15.4598 12.0328C15.7582 12.4576 16.1798 12.7788 16.6667 12.9523V16.46C16.6667 18.3251 15.1836 19.82 13.3333 19.82H10.8333C8.98302 19.82 7.5 18.3251 7.5 16.46V16.3058C8.36083 15.9975 8.99786 15.2341 9.13086 14.2977C11.5882 13.306 13.3333 10.8841 13.3333 8.06V3.02C13.3333 2.10183 12.5776 1.34 11.6667 1.34H11.4404C11.2944 1.08504 11.0845 0.873243 10.8317 0.725819C10.5789 0.578394 10.2921 0.500521 10 0.5C9.55797 0.5 9.13405 0.676999 8.82149 0.99206C8.50893 1.30712 8.33333 1.73444 8.33333 2.18C8.33333 2.62556 8.50893 3.05288 8.82149 3.36794C9.13405 3.683 9.55797 3.86 10 3.86C10.2923 3.85977 10.5795 3.78203 10.8326 3.63459C11.0857 3.48715 11.2959 3.2752 11.4421 3.02H11.6667V8.06C11.6667 10.8535 9.43797 13.1 6.66667 13.1C3.89536 13.1 1.66667 10.8535 1.66667 8.06V3.02H1.8929C2.03893 3.27496 2.24887 3.48676 2.50167 3.63418C2.75447 3.78161 3.04127 3.85948 3.33333 3.86C3.77536 3.86 4.19928 3.683 4.51184 3.36794C4.8244 3.05288 5 2.62556 5 2.18C5 1.73444 4.8244 1.30712 4.51184 0.99206C4.19928 0.676999 3.77536 0.5 3.33333 0.5Z" fill="black"/>
</svg>
